<?xml version="1.0" encoding="UTF-8" standalone="no" ?>
<!DOCTYPE svg PUBLIC "-//W3C//DTD SVG 1.1//EN" "http://www.w3.org/Graphics/SVG/1.1/DTD/svg11.dtd">
<svg xmlns="http://www.w3.org/2000/svg" xmlns:xlink="http://www.w3.org/1999/xlink" version="1.1" width="600" height="450" viewBox="0 0 800 600" xml:space="preserve">
<desc>Created with Fabric.js 3.6.6</desc>
<defs>
</defs>
<g transform="matrix(-0.49 0 0 0.49 407.67 297)"  >
<g style=""   >
		<g transform="matrix(1 0 0 1 70.35 -18.7)"  >
<polygon style="stroke: rgb(0,0,0); stroke-width: 0.1; stroke-dasharray: none; stroke-linecap: butt; stroke-dashoffset: 0; stroke-linejoin: miter; stroke-miterlimit: 4; fill: rgb(249,183,95); fill-rule: nonzero; opacity: 1;"  points="-140.45,-38.2 -140.35,-264.8 140.15,-103.1 140.05,123.5 140.45,264.8 -139.95,102.4 -140.35,-38.2 " />
</g>
		<g transform="matrix(1 0 0 1 290.15 17.05)"  >
<polygon style="stroke: rgb(0,0,0); stroke-width: 0.1; stroke-dasharray: none; stroke-linecap: butt; stroke-dashoffset: 0; stroke-linejoin: miter; stroke-miterlimit: 4; fill: rgb(251,176,59); fill-rule: nonzero; opacity: 1;"  points="-79.65,-138.85 79.35,-229.95 79.35,-88.55 79.35,-88.55 79.75,137.55 -79.65,229.95 -79.75,87.75 " />
</g>
		<g transform="matrix(1 0 0 1 149.75 -248.55)"  >
<path style="stroke: rgb(0,0,0); stroke-width: 0.1; stroke-dasharray: none; stroke-linecap: butt; stroke-dashoffset: 0; stroke-linejoin: miter; stroke-miterlimit: 4; fill: rgb(241,242,242); fill-rule: nonzero; opacity: 1;"  transform=" translate(-649.75, -251.45)" d="M 588 124.7 l 281.5 162.4 l -159 91.1 L 430 216.5 L 588 124.7 z M 588.1 150 l -114.4 66.5 l 237.6 137.1 l 0 0 l 114.4 -66.5" stroke-linecap="round" />
</g>
		<g transform="matrix(1 0 0 1 151.8 -260.45)"  >
<polygon style="stroke: rgb(0,0,0); stroke-width: 0.1; stroke-dasharray: none; stroke-linecap: butt; stroke-dashoffset: 0; stroke-linejoin: miter; stroke-miterlimit: 4; fill: rgb(244,208,159); fill-rule: nonzero; opacity: 1;"  points="-183.5,-35.25 60.8,106.15 183.5,35.35 -60.8,-106.15 " />
</g>
		<g transform="matrix(1 0 0 1 67.3 -203.35)"  >
<polygon style="stroke: rgb(0,0,0); stroke-width: 0.1; stroke-dasharray: none; stroke-linecap: butt; stroke-dashoffset: 0; stroke-linejoin: miter; stroke-miterlimit: 4; fill: rgb(77,77,77); fill-rule: nonzero; opacity: 1;"  points="-145.6,-91.85 145.6,75.85 145.6,91.85 -145.2,-77.05 " />
</g>
		<g transform="matrix(1 0 0 1 297.6 -168.05)"  >
<polygon style="stroke: rgb(0,0,0); stroke-width: 0.1; stroke-dasharray: none; stroke-linecap: butt; stroke-dashoffset: 0; stroke-linejoin: miter; stroke-miterlimit: 4; fill: rgb(102,102,102); fill-rule: nonzero; opacity: 1;"  points="-84.7,40.55 84.3,-56.55 84.7,-41.45 -84.7,56.55 " />
</g>
		<g transform="matrix(1 0 0 1 151.8 -260.25)"  >
<path style="stroke: rgb(0,0,0); stroke-width: 0.1; stroke-dasharray: none; stroke-linecap: butt; stroke-dashoffset: 0; stroke-linejoin: miter; stroke-miterlimit: 4; fill: rgb(153,153,153); fill-rule: nonzero; opacity: 1;"  transform=" translate(-651.8, -239.75)" d="M 590 107 l 291.9 168.4 l -169 97.1 L 421.7 204.8 L 590 107 z M 713.4 346.2 l 121.9 -70.8 L 590.2 134 l -121.9 70.8 L 713.4 346.2 L 713.4 346.2 z" stroke-linecap="round" />
</g>
		<g transform="matrix(1 0 0 1 115.2 67.4)"  >
<polygon style="stroke: rgb(0,0,0); stroke-width: 0.1; stroke-dasharray: none; stroke-linecap: butt; stroke-dashoffset: 0; stroke-linejoin: miter; stroke-miterlimit: 4; fill: rgb(79,89,89); fill-rule: nonzero; opacity: 1;"  points="-11,-101.4 -11.1,115.3 10.8,101.3 11.1,-115.3 " />
</g>
		<g transform="matrix(1 0 0 1 42.5 39.2)"  >
<polygon style="stroke: rgb(0,0,0); stroke-width: 0.1; stroke-dasharray: none; stroke-linecap: butt; stroke-dashoffset: 0; stroke-linejoin: miter; stroke-miterlimit: 4; fill: rgb(113,119,119); fill-rule: nonzero; opacity: 1;"  points="-61.6,-143.5 -61.7,73.2 61.6,143.5 61.7,-73.2 " />
</g>
		<g transform="matrix(1 0 0 1 56.3 -130)"  >
<polygon style="stroke: rgb(0,0,0); stroke-width: 0.1; stroke-dasharray: none; stroke-linecap: butt; stroke-dashoffset: 0; stroke-linejoin: miter; stroke-miterlimit: 4; fill: rgb(244,244,244); fill-rule: nonzero; opacity: 1;"  points="88.7,46.4 66.6,60.1 -88.7,-28.7 -33.2,-60.1 -17.2,-50.9 -56.8,-28.7 66.5,41.6 88.5,27.3 " />
</g>
		<g transform="matrix(1 0 0 1 26.45 129.8)"  >
<polygon style="stroke: rgb(0,0,0); stroke-width: 0.1; stroke-dasharray: none; stroke-linecap: butt; stroke-dashoffset: 0; stroke-linejoin: miter; stroke-miterlimit: 4; fill: rgb(226,140,55); fill-rule: nonzero; opacity: 1;"  points="77.75,14.9 77.55,73.9 -77.75,-14.8 -77.55,-73.9 " />
</g>
		<g transform="matrix(1 0 0 1 123 162.45)"  >
<polygon style="stroke: rgb(0,0,0); stroke-width: 0.1; stroke-dasharray: none; stroke-linecap: butt; stroke-dashoffset: 0; stroke-linejoin: miter; stroke-miterlimit: 4; fill: rgb(198,198,198); fill-rule: nonzero; opacity: 1;"  points="19,-41.25 18.9,17.75 -19,41.25 -18.8,-17.75 " />
</g>
		<g transform="matrix(1 0 0 1 45.45 91.25)"  >
<polygon style="stroke: rgb(0,0,0); stroke-width: 0.1; stroke-dasharray: none; stroke-linecap: butt; stroke-dashoffset: 0; stroke-linejoin: miter; stroke-miterlimit: 4; fill: rgb(244,244,244); fill-rule: nonzero; opacity: 1;"  points="96.55,29.95 58.75,53.45 -96.55,-35.35 -64.85,-53.45 -64.65,-35.35 58.65,34.95 80.65,20.65 " />
</g>
		<g transform="matrix(1 0 0 1 26.45 12.65)"  >
<polygon style="stroke: rgb(0,0,0); stroke-width: 0.1; stroke-dasharray: none; stroke-linecap: butt; stroke-dashoffset: 0; stroke-linejoin: miter; stroke-miterlimit: 4; fill: rgb(226,140,55); fill-rule: nonzero; opacity: 1;"  points="77.75,13.15 77.55,75.55 -77.75,-13.25 -77.55,-75.55 " />
</g>
		<g transform="matrix(1 0 0 1 123 45.25)"  >
<polygon style="stroke: rgb(0,0,0); stroke-width: 0.1; stroke-dasharray: none; stroke-linecap: butt; stroke-dashoffset: 0; stroke-linejoin: miter; stroke-miterlimit: 4; fill: rgb(198,198,198); fill-rule: nonzero; opacity: 1;"  points="19,-42.95 18.9,19.35 -19,42.95 -18.8,-19.45 " />
</g>
		<g transform="matrix(1 0 0 1 45.45 -28.05)"  >
<polygon style="stroke: rgb(0,0,0); stroke-width: 0.1; stroke-dasharray: none; stroke-linecap: butt; stroke-dashoffset: 0; stroke-linejoin: miter; stroke-miterlimit: 4; fill: rgb(244,244,244); fill-rule: nonzero; opacity: 1;"  points="96.55,30.35 58.75,53.85 -96.55,-34.85 -64.45,-53.85 -64.65,-34.85 58.65,35.45 80.65,21.15 " />
</g>
		<g transform="matrix(1 0 0 1 36.25 -118.75)"  >
<polygon style="stroke: rgb(0,0,0); stroke-width: 0.1; stroke-dasharray: none; stroke-linecap: butt; stroke-dashoffset: 0; stroke-linejoin: miter; stroke-miterlimit: 4; fill: rgb(226,140,55); fill-rule: nonzero; opacity: 1;"  points="87.35,4.55 -87.35,-94.65 -87.35,-3.05 86.45,94.65 86.65,50.05 87.15,50.35 " />
</g>
		<g transform="matrix(1 0 0 1 134 -75.9)"  >
<polygon style="stroke: rgb(0,0,0); stroke-width: 0.1; stroke-dasharray: none; stroke-linecap: butt; stroke-dashoffset: 0; stroke-linejoin: miter; stroke-miterlimit: 4; fill: rgb(198,198,198); fill-rule: nonzero; opacity: 1;"  points="11.3,-51.8 -10.4,-38.3 -10.6,5.7 -11.1,6 -11.3,51.8 10.8,38.1 11,-5.9 11.2,-6 " />
</g>
		<g transform="matrix(1 0 0 1 47.4 -170.75)"  >
<polygon style="stroke: rgb(0,0,0); stroke-width: 0.1; stroke-dasharray: none; stroke-linecap: butt; stroke-dashoffset: 0; stroke-linejoin: miter; stroke-miterlimit: 4; fill: rgb(244,244,244); fill-rule: nonzero; opacity: 1;"  points="98.5,44.45 76.2,56.55 -98.5,-42.65 -74.1,-56.55 " />
</g>
		<g transform="matrix(1 0 0 1 289.25 -56.35)"  >
<polygon style="stroke: rgb(0,0,0); stroke-width: 0.1; stroke-dasharray: none; stroke-linecap: butt; stroke-dashoffset: 0; stroke-linejoin: miter; stroke-miterlimit: 4; fill: rgb(79,89,89); fill-rule: nonzero; opacity: 1;"  points="-33.45,-19.05 -33.15,57.55 33.45,19.15 33.25,-57.55 " />
</g>
		<g transform="matrix(1 0 0 1 290.8 -57.35)"  >
<polygon style="stroke: rgb(0,0,0); stroke-width: 0.1; stroke-dasharray: none; stroke-linecap: butt; stroke-dashoffset: 0; stroke-linejoin: miter; stroke-miterlimit: 4; fill: rgb(255,255,255); fill-rule: nonzero; opacity: 1;"  points="-5.6,-35.15 -5.4,41.55 5.6,35.05 5.4,-41.55 " />
</g>
		<g transform="matrix(1 0 0 1 291.3 -11.2)"  >
<path style="stroke: rgb(0,0,0); stroke-width: 0.1; stroke-dasharray: none; stroke-linecap: butt; stroke-dashoffset: 0; stroke-linejoin: miter; stroke-miterlimit: 4; fill: rgb(163,163,163); fill-rule: nonzero; opacity: 1;"  transform=" translate(-791.3, -488.8)" d="M 772.5 502.2 l 51.6 -30.1 c 2.5 -1.4 3.7 -3.3 3.7 -5.1 l 0 6.3 c 0 1.8 -1.2 3.7 -3.7 5.1 l -51.6 30.1 c -4.9 2.8 -12.8 2.8 -17.7 0 v -6.3 C 759.7 505.1 767.6 505.1 772.5 502.2 z" stroke-linecap="round" />
</g>
		<g transform="matrix(1 0 0 1 291.29 -16.93)"  >
<path style="stroke: rgb(0,0,0); stroke-width: 0.1; stroke-dasharray: none; stroke-linecap: butt; stroke-dashoffset: 0; stroke-linejoin: miter; stroke-miterlimit: 4; fill: rgb(237,237,237); fill-rule: nonzero; opacity: 1;"  transform=" translate(-791.29, -483.07)" d="M 754.8 502.2 c 4.9 2.8 12.8 2.9 17.7 0 l 51.6 -30.1 c 4.9 -2.8 4.9 -7.4 0.1 -10.3 L 754.8 502.2 z" stroke-linecap="round" />
</g>
		<g transform="matrix(1 0 0 1 294.35 68.15)"  >
<polygon style="stroke: rgb(0,0,0); stroke-width: 0.1; stroke-dasharray: none; stroke-linecap: butt; stroke-dashoffset: 0; stroke-linejoin: miter; stroke-miterlimit: 4; fill: rgb(79,89,89); fill-rule: nonzero; opacity: 1;"  points="-33.45,-19.05 -33.15,57.55 33.45,19.15 33.25,-57.55 " />
</g>
		<g transform="matrix(1 0 0 1 295.9 67.15)"  >
<polygon style="stroke: rgb(0,0,0); stroke-width: 0.1; stroke-dasharray: none; stroke-linecap: butt; stroke-dashoffset: 0; stroke-linejoin: miter; stroke-miterlimit: 4; fill: rgb(255,255,255); fill-rule: nonzero; opacity: 1;"  points="-5.6,-35.05 -5.4,41.55 5.6,35.05 5.4,-41.55 " />
</g>
		<g transform="matrix(1 0 0 1 296.4 113.3)"  >
<path style="stroke: rgb(0,0,0); stroke-width: 0.1; stroke-dasharray: none; stroke-linecap: butt; stroke-dashoffset: 0; stroke-linejoin: miter; stroke-miterlimit: 4; fill: rgb(163,163,163); fill-rule: nonzero; opacity: 1;"  transform=" translate(-796.4, -613.3)" d="M 777.6 626.8 l 51.6 -30.2 c 2.5 -1.4 3.7 -3.3 3.7 -5.1 l 0 6.3 c 0 1.8 -1.2 3.7 -3.7 5.1 L 777.6 633 c -4.9 2.8 -12.8 2.8 -17.7 0 v -6.3 C 764.8 629.6 772.7 629.6 777.6 626.8 z" stroke-linecap="round" />
</g>
		<g transform="matrix(1 0 0 1 296.39 107.62)"  >
<path style="stroke: rgb(0,0,0); stroke-width: 0.1; stroke-dasharray: none; stroke-linecap: butt; stroke-dashoffset: 0; stroke-linejoin: miter; stroke-miterlimit: 4; fill: rgb(237,237,237); fill-rule: nonzero; opacity: 1;"  transform=" translate(-796.39, -607.62)" d="M 759.9 626.8 c 4.9 2.8 12.8 2.9 17.7 0 l 51.6 -30.2 c 4.9 -2.8 4.9 -7.4 0.1 -10.3 L 759.9 626.8 z" stroke-linecap="round" />
</g>
		<g transform="matrix(1 0 0 1 -233.65 127.3)"  >
<polygon style="stroke: rgb(0,0,0); stroke-width: 0.1; stroke-dasharray: none; stroke-linecap: butt; stroke-dashoffset: 0; stroke-linejoin: miter; stroke-miterlimit: 4; fill: rgb(249,183,95); fill-rule: nonzero; opacity: 1;"  points="-140.45,-38.2 -140.35,-264.8 140.15,-103.1 140.05,123.5 140.45,264.8 -139.95,102.4 -140.35,-38.2 " />
</g>
		<g transform="matrix(1 0 0 1 -13.85 163.05)"  >
<polygon style="stroke: rgb(0,0,0); stroke-width: 0.1; stroke-dasharray: none; stroke-linecap: butt; stroke-dashoffset: 0; stroke-linejoin: miter; stroke-miterlimit: 4; fill: rgb(251,176,59); fill-rule: nonzero; opacity: 1;"  points="-79.65,-138.85 79.35,-229.95 79.35,-88.55 79.35,-88.55 79.75,137.55 -79.65,229.95 -79.75,87.75 " />
</g>
		<g transform="matrix(1 0 0 1 -154.25 -102.55)"  >
<path style="stroke: rgb(0,0,0); stroke-width: 0.1; stroke-dasharray: none; stroke-linecap: butt; stroke-dashoffset: 0; stroke-linejoin: miter; stroke-miterlimit: 4; fill: rgb(241,242,242); fill-rule: nonzero; opacity: 1;"  transform=" translate(-345.75, -397.45)" d="M 284 270.7 l 281.5 162.4 l -159 91.1 L 126 362.5 L 284 270.7 z M 284.1 296 l -114.4 66.5 l 237.6 137.1 l 0 0 l 114.4 -66.5" stroke-linecap="round" />
</g>
		<g transform="matrix(1 0 0 1 -152.2 -114.45)"  >
<polygon style="stroke: rgb(0,0,0); stroke-width: 0.1; stroke-dasharray: none; stroke-linecap: butt; stroke-dashoffset: 0; stroke-linejoin: miter; stroke-miterlimit: 4; fill: rgb(244,208,159); fill-rule: nonzero; opacity: 1;"  points="-183.5,-35.25 60.8,106.15 183.5,35.35 -60.8,-106.15 " />
</g>
		<g transform="matrix(1 0 0 1 -236.7 -57.35)"  >
<polygon style="stroke: rgb(0,0,0); stroke-width: 0.1; stroke-dasharray: none; stroke-linecap: butt; stroke-dashoffset: 0; stroke-linejoin: miter; stroke-miterlimit: 4; fill: rgb(77,77,77); fill-rule: nonzero; opacity: 1;"  points="-145.6,-91.85 145.6,75.85 145.6,91.85 -145.2,-77.05 " />
</g>
		<g transform="matrix(1 0 0 1 -6.4 -22.05)"  >
<polygon style="stroke: rgb(0,0,0); stroke-width: 0.1; stroke-dasharray: none; stroke-linecap: butt; stroke-dashoffset: 0; stroke-linejoin: miter; stroke-miterlimit: 4; fill: rgb(102,102,102); fill-rule: nonzero; opacity: 1;"  points="-84.7,40.55 84.3,-56.55 84.7,-41.45 -84.7,56.55 " />
</g>
		<g transform="matrix(1 0 0 1 -152.2 -114.25)"  >
<path style="stroke: rgb(0,0,0); stroke-width: 0.1; stroke-dasharray: none; stroke-linecap: butt; stroke-dashoffset: 0; stroke-linejoin: miter; stroke-miterlimit: 4; fill: rgb(153,153,153); fill-rule: nonzero; opacity: 1;"  transform=" translate(-347.8, -385.75)" d="M 286 253 l 291.9 168.4 l -169 97.1 L 117.7 350.8 L 286 253 z M 409.4 492.2 l 121.9 -70.8 L 286.2 280 l -121.9 70.8 L 409.4 492.2 L 409.4 492.2 z" stroke-linecap="round" />
</g>
		<g transform="matrix(1 0 0 1 -188.8 213.4)"  >
<polygon style="stroke: rgb(0,0,0); stroke-width: 0.1; stroke-dasharray: none; stroke-linecap: butt; stroke-dashoffset: 0; stroke-linejoin: miter; stroke-miterlimit: 4; fill: rgb(79,89,89); fill-rule: nonzero; opacity: 1;"  points="-11,-101.4 -11.1,115.3 10.8,101.3 11.1,-115.3 " />
</g>
		<g transform="matrix(1 0 0 1 -261.5 185.2)"  >
<polygon style="stroke: rgb(0,0,0); stroke-width: 0.1; stroke-dasharray: none; stroke-linecap: butt; stroke-dashoffset: 0; stroke-linejoin: miter; stroke-miterlimit: 4; fill: rgb(113,119,119); fill-rule: nonzero; opacity: 1;"  points="-61.6,-143.5 -61.7,73.2 61.6,143.5 61.7,-73.2 " />
</g>
		<g transform="matrix(1 0 0 1 -247.7 16)"  >
<polygon style="stroke: rgb(0,0,0); stroke-width: 0.1; stroke-dasharray: none; stroke-linecap: butt; stroke-dashoffset: 0; stroke-linejoin: miter; stroke-miterlimit: 4; fill: rgb(244,244,244); fill-rule: nonzero; opacity: 1;"  points="88.7,46.4 66.6,60.1 -88.7,-28.7 -33.2,-60.1 -17.2,-50.9 -56.8,-28.7 66.5,41.6 88.5,27.3 " />
</g>
		<g transform="matrix(1 0 0 1 -277.55 275.8)"  >
<polygon style="stroke: rgb(0,0,0); stroke-width: 0.1; stroke-dasharray: none; stroke-linecap: butt; stroke-dashoffset: 0; stroke-linejoin: miter; stroke-miterlimit: 4; fill: rgb(226,140,55); fill-rule: nonzero; opacity: 1;"  points="77.75,14.9 77.55,73.9 -77.75,-14.8 -77.55,-73.9 " />
</g>
		<g transform="matrix(1 0 0 1 -181 308.45)"  >
<polygon style="stroke: rgb(0,0,0); stroke-width: 0.1; stroke-dasharray: none; stroke-linecap: butt; stroke-dashoffset: 0; stroke-linejoin: miter; stroke-miterlimit: 4; fill: rgb(198,198,198); fill-rule: nonzero; opacity: 1;"  points="19,-41.25 18.9,17.75 -19,41.25 -18.8,-17.75 " />
</g>
		<g transform="matrix(1 0 0 1 -258.55 237.25)"  >
<polygon style="stroke: rgb(0,0,0); stroke-width: 0.1; stroke-dasharray: none; stroke-linecap: butt; stroke-dashoffset: 0; stroke-linejoin: miter; stroke-miterlimit: 4; fill: rgb(244,244,244); fill-rule: nonzero; opacity: 1;"  points="96.55,29.95 58.75,53.45 -96.55,-35.35 -64.85,-53.45 -64.65,-35.35 58.65,34.95 80.65,20.65 " />
</g>
		<g transform="matrix(1 0 0 1 -277.55 158.65)"  >
<polygon style="stroke: rgb(0,0,0); stroke-width: 0.1; stroke-dasharray: none; stroke-linecap: butt; stroke-dashoffset: 0; stroke-linejoin: miter; stroke-miterlimit: 4; fill: rgb(226,140,55); fill-rule: nonzero; opacity: 1;"  points="77.75,13.15 77.55,75.55 -77.75,-13.25 -77.55,-75.55 " />
</g>
		<g transform="matrix(1 0 0 1 -181 191.25)"  >
<polygon style="stroke: rgb(0,0,0); stroke-width: 0.1; stroke-dasharray: none; stroke-linecap: butt; stroke-dashoffset: 0; stroke-linejoin: miter; stroke-miterlimit: 4; fill: rgb(198,198,198); fill-rule: nonzero; opacity: 1;"  points="19,-42.95 18.9,19.35 -19,42.95 -18.8,-19.45 " />
</g>
		<g transform="matrix(1 0 0 1 -258.55 117.95)"  >
<polygon style="stroke: rgb(0,0,0); stroke-width: 0.1; stroke-dasharray: none; stroke-linecap: butt; stroke-dashoffset: 0; stroke-linejoin: miter; stroke-miterlimit: 4; fill: rgb(244,244,244); fill-rule: nonzero; opacity: 1;"  points="96.55,30.35 58.75,53.85 -96.55,-34.85 -64.45,-53.85 -64.65,-34.85 58.65,35.45 80.65,21.15 " />
</g>
		<g transform="matrix(1 0 0 1 -267.75 27.25)"  >
<polygon style="stroke: rgb(0,0,0); stroke-width: 0.1; stroke-dasharray: none; stroke-linecap: butt; stroke-dashoffset: 0; stroke-linejoin: miter; stroke-miterlimit: 4; fill: rgb(226,140,55); fill-rule: nonzero; opacity: 1;"  points="87.35,4.55 -87.35,-94.65 -87.35,-3.05 86.45,94.65 86.65,50.05 87.15,50.35 " />
</g>
		<g transform="matrix(1 0 0 1 -170 70.1)"  >
<polygon style="stroke: rgb(0,0,0); stroke-width: 0.1; stroke-dasharray: none; stroke-linecap: butt; stroke-dashoffset: 0; stroke-linejoin: miter; stroke-miterlimit: 4; fill: rgb(198,198,198); fill-rule: nonzero; opacity: 1;"  points="11.3,-51.8 -10.4,-38.3 -10.6,5.7 -11.1,6 -11.3,51.8 10.8,38.1 11,-5.9 11.2,-6 " />
</g>
		<g transform="matrix(1 0 0 1 -256.6 -24.75)"  >
<polygon style="stroke: rgb(0,0,0); stroke-width: 0.1; stroke-dasharray: none; stroke-linecap: butt; stroke-dashoffset: 0; stroke-linejoin: miter; stroke-miterlimit: 4; fill: rgb(244,244,244); fill-rule: nonzero; opacity: 1;"  points="98.5,44.45 76.2,56.55 -98.5,-42.65 -74.1,-56.55 " />
</g>
		<g transform="matrix(1 0 0 1 -14.75 89.65)"  >
<polygon style="stroke: rgb(0,0,0); stroke-width: 0.1; stroke-dasharray: none; stroke-linecap: butt; stroke-dashoffset: 0; stroke-linejoin: miter; stroke-miterlimit: 4; fill: rgb(79,89,89); fill-rule: nonzero; opacity: 1;"  points="-33.45,-19.05 -33.15,57.55 33.45,19.15 33.25,-57.55 " />
</g>
		<g transform="matrix(1 0 0 1 -13.2 88.65)"  >
<polygon style="stroke: rgb(0,0,0); stroke-width: 0.1; stroke-dasharray: none; stroke-linecap: butt; stroke-dashoffset: 0; stroke-linejoin: miter; stroke-miterlimit: 4; fill: rgb(255,255,255); fill-rule: nonzero; opacity: 1;"  points="-5.6,-35.15 -5.4,41.55 5.6,35.05 5.4,-41.55 " />
</g>
		<g transform="matrix(1 0 0 1 -12.7 134.8)"  >
<path style="stroke: rgb(0,0,0); stroke-width: 0.1; stroke-dasharray: none; stroke-linecap: butt; stroke-dashoffset: 0; stroke-linejoin: miter; stroke-miterlimit: 4; fill: rgb(163,163,163); fill-rule: nonzero; opacity: 1;"  transform=" translate(-487.3, -634.8)" d="M 468.5 648.2 l 51.6 -30.1 c 2.5 -1.4 3.7 -3.3 3.7 -5.1 l 0 6.3 c 0 1.8 -1.2 3.7 -3.7 5.1 l -51.6 30.1 c -4.9 2.8 -12.8 2.8 -17.7 0 v -6.3 C 455.7 651.1 463.6 651.1 468.5 648.2 z" stroke-linecap="round" />
</g>
		<g transform="matrix(1 0 0 1 -12.71 129.07)"  >
<path style="stroke: rgb(0,0,0); stroke-width: 0.1; stroke-dasharray: none; stroke-linecap: butt; stroke-dashoffset: 0; stroke-linejoin: miter; stroke-miterlimit: 4; fill: rgb(237,237,237); fill-rule: nonzero; opacity: 1;"  transform=" translate(-487.29, -629.07)" d="M 450.8 648.2 c 4.9 2.8 12.8 2.9 17.7 0 l 51.6 -30.1 c 4.9 -2.8 4.9 -7.4 0.1 -10.3 L 450.8 648.2 z" stroke-linecap="round" />
</g>
		<g transform="matrix(1 0 0 1 -9.65 214.15)"  >
<polygon style="stroke: rgb(0,0,0); stroke-width: 0.1; stroke-dasharray: none; stroke-linecap: butt; stroke-dashoffset: 0; stroke-linejoin: miter; stroke-miterlimit: 4; fill: rgb(79,89,89); fill-rule: nonzero; opacity: 1;"  points="-33.45,-19.05 -33.15,57.55 33.45,19.15 33.25,-57.55 " />
</g>
		<g transform="matrix(1 0 0 1 -8.1 213.15)"  >
<polygon style="stroke: rgb(0,0,0); stroke-width: 0.1; stroke-dasharray: none; stroke-linecap: butt; stroke-dashoffset: 0; stroke-linejoin: miter; stroke-miterlimit: 4; fill: rgb(255,255,255); fill-rule: nonzero; opacity: 1;"  points="-5.6,-35.05 -5.4,41.55 5.6,35.05 5.4,-41.55 " />
</g>
		<g transform="matrix(1 0 0 1 -7.6 259.3)"  >
<path style="stroke: rgb(0,0,0); stroke-width: 0.1; stroke-dasharray: none; stroke-linecap: butt; stroke-dashoffset: 0; stroke-linejoin: miter; stroke-miterlimit: 4; fill: rgb(163,163,163); fill-rule: nonzero; opacity: 1;"  transform=" translate(-492.4, -759.3)" d="M 473.6 772.8 l 51.6 -30.2 c 2.5 -1.4 3.7 -3.3 3.7 -5.1 l 0 6.3 c 0 1.8 -1.2 3.7 -3.7 5.1 L 473.6 779 c -4.9 2.8 -12.8 2.8 -17.7 0 v -6.3 C 460.8 775.6 468.7 775.6 473.6 772.8 z" stroke-linecap="round" />
</g>
		<g transform="matrix(1 0 0 1 -7.61 253.62)"  >
<path style="stroke: rgb(0,0,0); stroke-width: 0.1; stroke-dasharray: none; stroke-linecap: butt; stroke-dashoffset: 0; stroke-linejoin: miter; stroke-miterlimit: 4; fill: rgb(237,237,237); fill-rule: nonzero; opacity: 1;"  transform=" translate(-492.39, -753.62)" d="M 455.9 772.8 c 4.9 2.8 12.8 2.9 17.7 0 l 51.6 -30.2 c 4.9 -2.8 4.9 -7.4 0.1 -10.3 L 455.9 772.8 z" stroke-linecap="round" />
</g>
</g>
</g>
</svg>